<svg width="23" height="23" viewBox="0 0 23 23" fill="none" xmlns="http://www.w3.org/2000/svg">
<g clip-path="url(#clip0_35_294)">
<path d="M19.55 0H3.45C1.54462 0 0 1.54462 0 3.45V19.55C0 21.4554 1.54462 23 3.45 23H19.55C21.4554 23 23 21.4554 23 19.55V3.45C23 1.54462 21.4554 0 19.55 0Z" fill="#3B5998"/>
<path d="M12.8926 20.4844V7.05273C12.8926 6.10938 13.1621 5.48047 14.4648 5.48047H16.1719V2.65039C15.8574 2.60547 14.8691 2.51562 13.7012 2.51562C11.2754 2.51562 9.61328 3.99805 9.61328 6.73828V20.4844M16.0371 9.07422H6.82812V12.3086H15.6328" fill="white"/>
</g>
<defs>
<clipPath id="clip0_35_294">
<rect width="23" height="23" fill="white"/>
</clipPath>
</defs>
</svg>
