<svg width="21" height="21" viewBox="0 0 21 21" fill="none" xmlns="http://www.w3.org/2000/svg">
<g clip-path="url(#clip0_35_293)">
<path d="M20.5532 10.7327C20.5532 9.87182 20.4832 9.24362 20.3318 8.59216H10.4863V12.4777H16.2654C16.1489 13.4432 15.5198 14.8974 14.1216 15.8746L14.102 16.0047L17.2149 18.4125L17.4306 18.434C19.4113 16.6075 20.5532 13.9202 20.5532 10.7327Z" fill="#4285F4"/>
<path d="M10.4863 20.97C13.3176 20.97 15.6945 20.0393 17.4306 18.4339L14.1216 15.8745C13.2361 16.4911 12.0476 16.9215 10.4863 16.9215C7.71331 16.9215 5.35973 15.0952 4.52074 12.5707L4.39776 12.5812L1.16086 15.0823L1.11853 15.1998C2.84293 18.62 6.38498 20.97 10.4863 20.97Z" fill="#34A853"/>
<path d="M4.52073 12.5707C4.29935 11.9193 4.17123 11.2212 4.17123 10.5C4.17123 9.77867 4.29935 9.0807 4.50908 8.42924L4.50321 8.2905L1.22575 5.74915L1.11851 5.80007C0.407806 7.21936 0 8.81316 0 10.5C0 12.1868 0.407806 13.7805 1.11851 15.1998L4.52073 12.5707Z" fill="#FBBC05"/>
<path d="M10.4863 4.0784C12.4554 4.0784 13.7836 4.92763 14.541 5.63731L17.5005 2.75223C15.6829 1.0654 13.3176 0.0300293 10.4863 0.0300293C6.38499 0.0300293 2.84293 2.37994 1.11853 5.80012L4.50909 8.42929C5.35973 5.90486 7.71331 4.0784 10.4863 4.0784Z" fill="#EB4335"/>
</g>
<defs>
<clipPath id="clip0_35_293">
<rect width="20.5532" height="21" fill="white"/>
</clipPath>
</defs>
</svg>
